<svg xmlns="http://www.w3.org/2000/svg" viewBox="0 0 840 116"><path fill="#212121" fill-rule="evenodd" d="M 89.1 13 C 87.8 14.1, 86.1 15, 85.4 15 C 83.2 15, 71.8 24.5, 69 28.7 C 66.6 32.2, 66.5 33.1, 66.3 48.2 C 66.1 65.4, 65.3 69.3, 61.2 73.3 C 54.5 79.7, 39 82.1, 31 78 C 25.9 75.4, 25 72.1, 25 55.5 C 25 40.7, 23.4 36, 18.5 36 C 14 36, 13.2 39, 12.8 56.5 C 12.4 78.8, 15.3 83.7, 31.4 87.7 C 38.9 89.5, 37.4 89.8, 56.5 83 C 63.7 80.4, 71.8 80.8, 77.7 84 C 79.8 85.1, 81.9 86, 82.4 86 C 82.9 86, 84.1 86.6, 84.9 87.3 C 85.8 88.1, 88.5 89.4, 91 90.3 C 98.2 93, 103.6 90.8, 116.1 80 C 120.6 76.1, 124.6 73, 125 73 C 125.5 73, 128 74.7, 130.7 76.8 C 142.1 85.6, 155.8 89.5, 167.2 87.1 C 174.9 85.5, 177.2 84.3, 176.8 82.2 C 176.5 80.8, 174.8 80.4, 167.5 79.9 C 151.1 78.8, 145.4 76.2, 142.6 68.3 C 140 60.9, 142.1 56, 152.9 44.5 C 161.8 35, 163 32.7, 163 24.2 C 163 17.4, 162.9 17.1, 159.5 14.1 C 155.1 10.3, 152.9 10.2, 147.5 13.7 C 141.8 17.3, 136.9 24.9, 126.5 46.4 C 118.9 61.9, 116.9 65.2, 111.6 70.7 L 105.4 77 98.1 77 C 89.3 77, 88.1 76.4, 80.7 68.8 C 76.5 64.4, 75.1 62.3, 75.6 61.1 C 76 60.2, 76.4 55.7, 76.5 51 C 76.8 35.1, 82.4 24, 90.2 24 C 99.1 24, 99.7 32.4, 91.6 43.7 C 87.5 49.5, 87.4 49.7, 90 52.8 C 94.2 57.9, 98.5 53.4, 104.2 38 C 108.4 26.6, 108 22.5, 101.9 15.7 C 97.3 10.4, 93.3 9.6, 89.1 13 M 431 16.8 C 425.5 22.9, 422.8 27.8, 418.1 40.8 C 416.4 45.3, 414.4 50.2, 413.7 51.8 C 412.9 53.3, 411.5 58.8, 410.5 64 C 408.8 73.2, 408.8 73.9, 410.5 80.9 C 413 91.3, 422.3 102.6, 427.9 102.2 C 429.6 102.1, 431.4 102.8, 432.5 104 C 435.5 107.3, 444.5 106, 458 100.2 C 459.9 99.4, 465.1 98.4, 469.5 97.9 C 482.3 96.7, 501.5 93.3, 504.6 91.7 C 506.2 90.9, 508.6 90, 510 89.7 C 511.4 89.3, 516.1 86.3, 520.5 83 L 528.5 77 555.5 77 C 570.4 77, 588 76.5, 594.8 76 C 602.7 75.5, 608.2 75.5, 610.3 76.2 C 612.2 76.7, 630.4 77.3, 654 77.4 C 692.1 77.6, 695 77.8, 703 79.9 C 707.6 81.1, 712.1 82.7, 713 83.4 C 716.6 86.4, 734.6 94, 738.2 94 C 739.3 94, 744.1 92.2, 748.7 90 C 753.4 87.8, 758.1 86, 759.2 86 C 761.7 86, 774.2 90.4, 777.3 92.4 C 785.3 97.5, 806 96.6, 819.4 90.5 C 829.8 85.8, 831 84.4, 831 77.1 C 831 67.8, 828.2 66.2, 820.6 71.4 C 818.9 72.5, 815.4 74.3, 813 75.4 C 810.5 76.4, 806.6 78.1, 804.3 79.2 C 801.4 80.5, 798.4 81, 794.8 80.8 C 786.4 80.3, 786.9 77.8, 797.3 67.9 C 806.6 59.1, 810.4 52.4, 808.1 48.9 C 807.5 47.9, 807 45.7, 807 44.2 C 807 40.6, 803.3 37, 799.6 37 C 794.2 37, 788.5 41.2, 774 56 C 763.6 66.7, 758.1 71.5, 754.7 73.1 C 752.1 74.3, 749.7 75.6, 749.4 76.1 C 748.5 77.6, 736.3 77.1, 732.1 75.4 C 724.9 72.5, 725.6 70.8, 736.1 65.7 C 749.5 59.1, 757 51.8, 757 45.4 C 756.9 39.2, 750.6 29, 746.7 29 C 741.4 29, 731.6 35.4, 718.6 47.3 C 701.7 62.9, 697.7 65, 685.2 65 C 671.3 65, 671.3 64.9, 678.9 48.9 C 683.1 40.1, 683.9 33.4, 681.2 30 L 679.2 27.5 673.3 29.5 C 666.2 31.9, 658.7 38.6, 652.4 48.1 C 643.8 61.2, 636.2 66.2, 627.5 64.6 C 622.2 63.6, 622.4 62.5, 629.3 55.6 C 639.3 45.6, 643.4 36.8, 641 30.5 C 640 28, 639.7 27.8, 635.2 28.5 C 619.2 30.7, 610.5 38, 604.6 54.3 C 600.9 64.2, 593.6 68.9, 587.1 65.4 C 583.7 63.6, 582.8 62, 581.5 55.9 C 580.9 52.7, 578.9 51.7, 575.4 53.1 C 570 55.1, 568.6 50.7, 572 41.9 C 575.7 31.9, 580.1 30, 589.4 34.1 C 592 35.2, 594.8 35.9, 595.6 35.6 C 597.3 34.9, 597.4 31.5, 595.8 30 C 589.2 24.6, 586.4 23, 583 23 C 578.8 23, 568.5 27.8, 565.1 31.4 C 562.4 34.2, 557 48.3, 557 52.5 C 557 56.6, 553 63.4, 550.4 63.8 C 547.2 64.3, 545.9 61.8, 545.4 53.8 C 544.8 44.4, 541.3 31.6, 538.8 29.3 C 537.7 28.4, 535.3 27.6, 533.3 27.6 C 526.4 27.6, 522.3 36.2, 523.4 48.5 C 524.1 57.4, 521.6 63.4, 514.1 70.3 C 506.5 77.4, 494.4 82.3, 490.1 80 C 487.5 78.6, 487.5 77.4, 490.1 72.5 C 491.3 70.3, 492.6 66.3, 493.1 63.5 C 493.5 60.8, 494.3 55.9, 494.9 52.7 C 496.8 41.6, 493.9 33.1, 487 29.3 C 481.5 26.3, 478 26.7, 471.9 30.8 C 459.7 39.1, 455.9 47.8, 455.2 69.5 C 454.8 82.2, 454.6 83.8, 452.4 86.6 C 445 96.5, 428.4 94.5, 424.6 83.3 C 422.8 78, 422.6 71.4, 423.9 64.3 C 424.4 61.7, 425.4 56.6, 426 53.1 C 428 42, 434.7 32, 440.2 32 C 450.3 32, 456.2 25.1, 452.8 17.3 C 450.5 11.8, 449.1 11, 442.4 11 L 436.2 11 431 16.8 M 343.9 22.4 C 330 27.3, 312.1 54.9, 311.9 71.8 C 311.8 77.5, 312.1 78.3, 316.1 83.6 C 318.5 86.8, 322.2 90.2, 324.3 91.3 L 328.1 93.2 335.3 90.7 C 339.3 89.3, 345.7 87, 349.5 85.5 C 353.6 83.9, 359.6 82.5, 364 82.1 L 371.5 81.5 372.4 77.5 C 373.6 71.5, 378.8 61.7, 383.5 56.3 C 393.1 45.2, 396.3 39.1, 396.8 31.3 C 397.3 21.9, 396.5 21.5, 385.7 26.8 C 381.2 28.9, 376.5 31.1, 375.2 31.4 C 370 33.1, 364.9 37.4, 365.5 39.5 C 370.8 55.6, 365 66.8, 347 74.9 C 341.4 77.4, 330.9 77.8, 329 75.5 C 325.8 71.7, 327.1 48, 330.8 43.1 C 333.5 39.4, 338.8 39.1, 344.7 42.4 C 347.2 43.8, 349.8 45, 350.5 45 C 354 45, 357.5 24.8, 354.3 23.2 C 350.8 21.4, 347.5 21.2, 343.9 22.4 M 213.4 25.6 C 200.4 32.4, 191.1 46.8, 185.9 68.1 L 183.8 76.6 186.3 81.6 C 190.6 90.1, 200.8 97, 208.9 97 C 212.9 97, 223 93.1, 226.7 90.2 C 233.1 85.2, 242.6 80.7, 245.3 81.4 C 246.7 81.7, 250.4 84.7, 253.6 88 C 258.4 93, 259.9 94, 262.7 94 C 264.6 94, 267.4 95, 269.1 96.2 C 271.8 98.3, 272.4 98.3, 278 97.2 C 285.9 95.5, 290.2 93.6, 294.5 89.9 C 302.1 83.2, 301.4 79.8, 292.8 81.2 C 275.8 84, 268 83, 263.1 77.4 C 258.3 71.9, 259.2 68.9, 270.5 53.5 C 278.4 42.7, 281.9 32.5, 279.1 28.2 C 278.7 27.5, 276.3 26.3, 273.9 25.6 C 262.4 22.1, 250.7 33.6, 247.4 51.3 C 246.1 59, 235.6 71.1, 226.4 75.9 C 222.8 77.7, 213.2 78.4, 211.5 77 C 209.5 75.3, 209.6 74.6, 212.5 71.2 C 213.9 69.5, 215 67.2, 215 66 C 215 63.8, 214.7 63.8, 209.5 64.4 C 204.4 65, 203.7 64.8, 201.4 62.4 C 197.9 59, 198.7 55.3, 204.3 48.2 C 211 39.6, 212.4 39.1, 221.6 41.8 L 229.3 44.1 232.7 40.9 C 243.6 30.3, 228 17.9, 213.4 25.6"/></svg>
